<svg xmlns="http://www.w3.org/2000/svg" width="38" height="38" viewBox="0 0 38 38">
    <g fill="none" fill-rule="evenodd" transform="translate(1 1)">
        <circle cx="18" cy="18" r="18" fill="#000" stroke="#FFF" stroke-width="2"/>
        <path fill="#FFF" d="M12.52 14.749l-.011-1.598C12.625 10.558 14.746 9 17.369 9c2.605 0 4.714 1.534 4.852 4.107h3.216v1.631l-12.918.01zM14.086 20.191a5.556 5.556 0 0 0 3.322 1.081c1.25 0 2.399-.4 3.306-1.069 1.153 1.015 1.93 2.691 2.332 5.028a1 1 0 0 1-.985 1.17h-9.336a1 1 0 0 1-.985-1.17c.404-2.346 1.185-4.026 2.346-5.04z"/>
        <path fill="#FFF" d="M12.509 15.532h9.798v.012a4.905 4.905 0 0 1-4.9 4.912 4.905 4.905 0 0 1-4.898-4.912v-.012z"/>
    </g>
</svg>
