<svg xmlns="http://www.w3.org/2000/svg" xmlns:xlink="http://www.w3.org/1999/xlink" width="24" height="24" viewBox="0 0 24 24">
    <defs>
        <path id="a" d="M19.052 15.92c-1.208-1.033-2.434-1.659-3.627-.627l-.713.623c-.521.453-1.49 2.568-5.239-1.743-3.747-4.306-1.517-4.977-.995-5.425l.717-.625c1.187-1.034.739-2.336-.117-3.676l-.517-.812C7.7 2.298 6.764 1.42 5.574 2.453l-.643.562c-.526.383-1.997 1.629-2.353 3.995-.43 2.84.924 6.091 4.027 9.659 3.099 3.569 6.132 5.362 9.006 5.33 2.388-.025 3.83-1.307 4.282-1.773l.645-.562c1.188-1.032.45-2.083-.759-3.119l-.727-.625z"/>
    </defs>
    <g fill="none" fill-rule="evenodd">
        <path d="M0 0h24v24H0z"/>
        <mask id="b" fill="#fff">
            <use xlink:href="#a"/>
        </mask>
        <g fill="#00aeb1" mask="url(#b)">
            <path d="M0 0h24v24H0z"/>
        </g>
    </g>
</svg>
